<svg xmlns="http://www.w3.org/2000/svg" viewBox="0 0 32 32" role="img" aria-label="App icon">
  <rect width="32" height="32" rx="8" ry="8" fill="#1B3357"/>
  <path d="M 16.3750 5.3191 A 10.6875 10.6875 0 1 1 12.2590 26.0114 L 14.3161 21.0452 A 5.3187 5.3187 0 1 0 16.3750 10.6945 L 16.3750 5.3191 Z" fill="#FFFFFF"/>
  <path d="M 11.5661 25.7244 A 10.6875 10.6875 0 0 1 5.8362 19.3045 L 11.0034 17.8229 A 5.3187 5.3187 0 0 0 13.6232 20.7581 L 11.5661 25.7244 Z" fill="#91A7BE"/>
  <path d="M 5.6295 18.5836 A 10.6875 10.6875 0 0 1 15.6250 5.3191 L 15.6250 10.6945 A 5.3187 5.3187 0 0 0 10.7966 17.1019 L 5.6295 18.5836 Z" fill="#B8D5E7"/>
</svg>